<svg width="1600" height="1000" viewBox="0 0 1600 1000" fill="none" xmlns="http://www.w3.org/2000/svg">
  <rect width="1600" height="1000" fill="#101C49"/>
  <rect x="54" y="54" width="1492" height="892" rx="38" fill="url(#paint0_linear)"/>
  <rect x="96" y="96" width="702" height="800" rx="36" fill="url(#paint1_linear)"/>
  <rect x="842" y="96" width="666" height="314" rx="28" fill="#1D2F73"/>
  <rect x="842" y="448" width="666" height="448" rx="28" fill="#182554"/>
  <circle cx="826" cy="264" r="116" fill="#D4A62A"/>
  <circle cx="826" cy="264" r="92" fill="#F5E6AF"/>
  <circle cx="1228" cy="650" r="104" fill="#D4A62A"/>
  <circle cx="1228" cy="650" r="84" fill="#EFF6FF"/>
  <rect x="160" y="164" width="352" height="42" rx="21" fill="#D4A62A"/>
  <rect x="160" y="234" width="448" height="34" rx="17" fill="#EFF6FF" fill-opacity="0.9"/>
  <rect x="160" y="288" width="398" height="34" rx="17" fill="#EFF6FF" fill-opacity="0.62"/>
  <rect x="160" y="770" width="486" height="52" rx="26" fill="#D4A62A"/>
  <rect x="910" y="152" width="422" height="60" rx="22" fill="#D4A62A"/>
  <rect x="910" y="244" width="506" height="38" rx="19" fill="#EFF6FF" fill-opacity="0.88"/>
  <rect x="910" y="304" width="412" height="38" rx="19" fill="#EFF6FF" fill-opacity="0.62"/>
  <rect x="910" y="546" width="448" height="46" rx="23" fill="#EFF6FF" fill-opacity="0.9"/>
  <rect x="910" y="620" width="388" height="36" rx="18" fill="#EFF6FF" fill-opacity="0.62"/>
  <rect x="910" y="678" width="430" height="36" rx="18" fill="#EFF6FF" fill-opacity="0.62"/>
  <text x="160" y="142" fill="#EFF6FF" font-family="Arial, sans-serif" font-size="34" font-weight="700">Replace with real MCBD image</text>
  <defs>
    <linearGradient id="paint0_linear" x1="54" y1="54" x2="1546" y2="946" gradientUnits="userSpaceOnUse">
      <stop stop-color="#1E3A8A"/>
      <stop offset="1" stop-color="#172554"/>
    </linearGradient>
    <linearGradient id="paint1_linear" x1="96" y1="96" x2="798" y2="896" gradientUnits="userSpaceOnUse">
      <stop stop-color="#60A5FA"/>
      <stop offset="1" stop-color="#1E1B4B"/>
    </linearGradient>
  </defs>
</svg>
