<svg width="1600" height="1000" viewBox="0 0 1600 1000" fill="none" xmlns="http://www.w3.org/2000/svg">
  <rect width="1600" height="1000" fill="#3A1117"/>
  <rect x="54" y="54" width="1492" height="892" rx="38" fill="url(#paint0_linear)"/>
  <rect x="100" y="100" width="688" height="790" rx="34" fill="url(#paint1_linear)"/>
  <rect x="832" y="100" width="674" height="360" rx="30" fill="#54131C"/>
  <rect x="832" y="498" width="674" height="392" rx="30" fill="#3C171C"/>
  <circle cx="808" cy="298" r="116" fill="#D4A62A"/>
  <circle cx="808" cy="298" r="92" fill="#F5E6AF"/>
  <circle cx="1190" cy="676" r="96" fill="#D4A62A"/>
  <circle cx="1190" cy="676" r="76" fill="#FFF7ED"/>
  <rect x="160" y="168" width="324" height="42" rx="21" fill="#D4A62A"/>
  <rect x="160" y="238" width="430" height="34" rx="17" fill="#FFF7ED" fill-opacity="0.9"/>
  <rect x="160" y="292" width="368" height="34" rx="17" fill="#FFF7ED" fill-opacity="0.62"/>
  <rect x="160" y="764" width="470" height="52" rx="26" fill="#D4A62A"/>
  <rect x="900" y="160" width="408" height="60" rx="22" fill="#D4A62A"/>
  <rect x="900" y="252" width="498" height="38" rx="19" fill="#FFF7ED" fill-opacity="0.88"/>
  <rect x="900" y="312" width="380" height="38" rx="19" fill="#FFF7ED" fill-opacity="0.62"/>
  <rect x="900" y="592" width="432" height="46" rx="23" fill="#FFF7ED" fill-opacity="0.9"/>
  <rect x="900" y="666" width="366" height="36" rx="18" fill="#FFF7ED" fill-opacity="0.62"/>
  <rect x="900" y="724" width="408" height="36" rx="18" fill="#FFF7ED" fill-opacity="0.62"/>
  <text x="160" y="146" fill="#FFF7ED" font-family="Arial, sans-serif" font-size="34" font-weight="700">Replace with real SCBD image</text>
  <defs>
    <linearGradient id="paint0_linear" x1="54" y1="54" x2="1546" y2="946" gradientUnits="userSpaceOnUse">
      <stop stop-color="#7F1D1D"/>
      <stop offset="1" stop-color="#292524"/>
    </linearGradient>
    <linearGradient id="paint1_linear" x1="100" y1="100" x2="788" y2="890" gradientUnits="userSpaceOnUse">
      <stop stop-color="#FB923C"/>
      <stop offset="1" stop-color="#7C2D12"/>
    </linearGradient>
  </defs>
</svg>
