<svg width="1600" height="1000" viewBox="0 0 1600 1000" fill="none" xmlns="http://www.w3.org/2000/svg">
  <rect width="1600" height="1000" fill="#0F2350"/>
  <rect x="54" y="54" width="1492" height="892" rx="38" fill="url(#paint0_linear)"/>
  <rect x="92" y="108" width="760" height="730" rx="28" fill="url(#paint1_linear)"/>
  <rect x="856" y="108" width="652" height="350" rx="28" fill="#1D2552"/>
  <rect x="856" y="492" width="652" height="346" rx="28" fill="#132246"/>
  <circle cx="846" cy="288" r="120" fill="#D4A62A"/>
  <circle cx="846" cy="288" r="98" fill="#F5E6AF"/>
  <circle cx="1074" cy="638" r="88" fill="#D4A62A"/>
  <circle cx="1074" cy="638" r="70" fill="#F3F4F6"/>
  <rect x="152" y="180" width="300" height="44" rx="22" fill="#D4A62A"/>
  <rect x="152" y="255" width="472" height="34" rx="17" fill="#F8FAFC" fill-opacity="0.88"/>
  <rect x="152" y="312" width="410" height="34" rx="17" fill="#F8FAFC" fill-opacity="0.62"/>
  <rect x="152" y="734" width="500" height="52" rx="26" fill="#D4A62A"/>
  <rect x="928" y="172" width="420" height="64" rx="22" fill="#D4A62A"/>
  <rect x="928" y="266" width="474" height="40" rx="20" fill="#F8FAFC" fill-opacity="0.88"/>
  <rect x="928" y="330" width="396" height="40" rx="20" fill="#F8FAFC" fill-opacity="0.62"/>
  <rect x="928" y="560" width="432" height="46" rx="23" fill="#F8FAFC" fill-opacity="0.9"/>
  <rect x="928" y="634" width="342" height="36" rx="18" fill="#F8FAFC" fill-opacity="0.62"/>
  <rect x="928" y="692" width="374" height="36" rx="18" fill="#F8FAFC" fill-opacity="0.62"/>
  <text x="152" y="150" fill="#F8FAFC" font-family="Arial, sans-serif" font-size="34" font-weight="700">Replace with real SQVB image</text>
  <defs>
    <linearGradient id="paint0_linear" x1="54" y1="54" x2="1546" y2="946" gradientUnits="userSpaceOnUse">
      <stop stop-color="#1A4B7A"/>
      <stop offset="1" stop-color="#12203F"/>
    </linearGradient>
    <linearGradient id="paint1_linear" x1="92" y1="108" x2="852" y2="838" gradientUnits="userSpaceOnUse">
      <stop stop-color="#46A3FF"/>
      <stop offset="1" stop-color="#0F2350"/>
    </linearGradient>
  </defs>
</svg>
